<svg xmlns="http://www.w3.org/2000/svg" xmlns:xlink="http://www.w3.org/1999/xlink" width="500" zoomAndPan="magnify" viewBox="0 0 375 374.999991" height="500" preserveAspectRatio="xMidYMid meet" version="1.0"><defs><clipPath id="0ca5984ea7"><path d="M 63.488281 0 L 311.738281 0 L 311.738281 185 L 63.488281 185 Z M 63.488281 0 " clip-rule="nonzero"/></clipPath><clipPath id="4ff5d27079"><path d="M 63.488281 48.75 L 63.488281 320.0625 C 63.488281 346.988281 85.3125 368.8125 112.238281 368.8125 L 262.761719 368.8125 C 289.6875 368.8125 311.511719 346.988281 311.511719 320.0625 L 311.511719 48.75 C 311.511719 21.824219 289.6875 0 262.761719 0 L 112.238281 0 C 85.3125 0 63.488281 21.824219 63.488281 48.75 Z M 63.488281 48.75 " clip-rule="nonzero"/></clipPath><clipPath id="6adbb7985f"><path d="M 63.488281 95 L 225 95 L 225 281 L 63.488281 281 Z M 63.488281 95 " clip-rule="nonzero"/></clipPath><clipPath id="8f1fe2bb5f"><path d="M 63.488281 48.75 L 63.488281 320.0625 C 63.488281 346.988281 85.3125 368.8125 112.238281 368.8125 L 262.761719 368.8125 C 289.6875 368.8125 311.511719 346.988281 311.511719 320.0625 L 311.511719 48.75 C 311.511719 21.824219 289.6875 0 262.761719 0 L 112.238281 0 C 85.3125 0 63.488281 21.824219 63.488281 48.75 Z M 63.488281 48.75 " clip-rule="nonzero"/></clipPath><clipPath id="d598d9b940"><path d="M 224 88 L 311.738281 88 L 311.738281 192 L 224 192 Z M 224 88 " clip-rule="nonzero"/></clipPath><clipPath id="a2e9a8938f"><path d="M 63.488281 48.75 L 63.488281 320.0625 C 63.488281 346.988281 85.3125 368.8125 112.238281 368.8125 L 262.761719 368.8125 C 289.6875 368.8125 311.511719 346.988281 311.511719 320.0625 L 311.511719 48.75 C 311.511719 21.824219 289.6875 0 262.761719 0 L 112.238281 0 C 85.3125 0 63.488281 21.824219 63.488281 48.75 Z M 63.488281 48.75 " clip-rule="nonzero"/></clipPath><clipPath id="4431dc425a"><path d="M 63.488281 228 L 225 228 L 225 369 L 63.488281 369 Z M 63.488281 228 " clip-rule="nonzero"/></clipPath><clipPath id="22e5267b06"><path d="M 63.488281 48.75 L 63.488281 320.0625 C 63.488281 346.988281 85.3125 368.8125 112.238281 368.8125 L 262.761719 368.8125 C 289.6875 368.8125 311.511719 346.988281 311.511719 320.0625 L 311.511719 48.75 C 311.511719 21.824219 289.6875 0 262.761719 0 L 112.238281 0 C 85.3125 0 63.488281 21.824219 63.488281 48.75 Z M 63.488281 48.75 " clip-rule="nonzero"/></clipPath><clipPath id="2c0d150d02"><path d="M 224 228 L 311.738281 228 L 311.738281 369 L 224 369 Z M 224 228 " clip-rule="nonzero"/></clipPath><clipPath id="7655cb85af"><path d="M 63.488281 48.75 L 63.488281 320.0625 C 63.488281 346.988281 85.3125 368.8125 112.238281 368.8125 L 262.761719 368.8125 C 289.6875 368.8125 311.511719 346.988281 311.511719 320.0625 L 311.511719 48.75 C 311.511719 21.824219 289.6875 0 262.761719 0 L 112.238281 0 C 85.3125 0 63.488281 21.824219 63.488281 48.75 Z M 63.488281 48.75 " clip-rule="nonzero"/></clipPath><clipPath id="30fb4ea88c"><path d="M 255 115 L 311.679688 115 L 311.679688 187 L 255 187 Z M 255 115 " clip-rule="nonzero"/></clipPath><clipPath id="fd116cd71c"><path d="M 236 114 L 249 114 L 249 187.695312 L 236 187.695312 Z M 236 114 " clip-rule="nonzero"/></clipPath><clipPath id="422457ac7e"><path d="M 229.179688 109.695312 L 245 109.695312 L 245 186 L 229.179688 186 Z M 229.179688 109.695312 " clip-rule="nonzero"/></clipPath></defs><rect x="-37.5" width="450" fill="#ffffff" y="-37.499999" height="449.999989" fill-opacity="1"/><rect x="-37.5" width="450" fill="#ffffff" y="-37.499999" height="449.999989" fill-opacity="1"/><g clip-path="url(#0ca5984ea7)"><g clip-path="url(#4ff5d27079)"><path fill="#dfd3be" d="M 63.488281 184.40625 L 224.847656 88.621094 L 224.847656 89.203125 L 311.503906 44.707031 L 224.847656 0.210938 L 63.488281 95.996094 Z M 63.488281 184.40625 " fill-opacity="1" fill-rule="evenodd"/></g></g><g clip-path="url(#6adbb7985f)"><g clip-path="url(#8f1fe2bb5f)"><path fill="#ad9a7a" d="M 63.488281 95.996094 L 224.847656 191.667969 L 224.847656 280.074219 L 63.488281 184.40625 Z M 63.488281 95.996094 " fill-opacity="1" fill-rule="evenodd"/></g></g><g clip-path="url(#d598d9b940)"><g clip-path="url(#a2e9a8938f)"><path fill="#ffffff" d="M 224.847656 88.621094 L 311.503906 140.027344 L 224.847656 191.433594 Z M 224.847656 88.621094 " fill-opacity="1" fill-rule="evenodd"/></g></g><g clip-path="url(#4431dc425a)"><g clip-path="url(#22e5267b06)"><path fill="#ffffff" d="M 137.960938 228.550781 L 224.847656 280.074219 L 224.847656 368.601562 L 63.488281 272.816406 Z M 137.960938 228.550781 " fill-opacity="1" fill-rule="evenodd"/></g></g><g clip-path="url(#2c0d150d02)"><g clip-path="url(#7655cb85af)"><path fill="#ad9a7a" d="M 311.503906 228.667969 L 224.847656 280.074219 L 224.847656 368.601562 L 311.503906 317.078125 Z M 311.503906 228.667969 " fill-opacity="1" fill-rule="evenodd"/></g></g><g clip-path="url(#30fb4ea88c)"><path fill="#cf2224" d="M 255.378906 116.367188 L 255.378906 185.691406 C 255.378906 185.9375 255.492188 186.109375 255.648438 186.210938 C 255.832031 186.371094 256.09375 186.425781 256.363281 186.253906 L 281 170.730469 C 291.121094 164.351562 301.242188 157.972656 311.363281 151.59375 C 311.78125 151.328125 311.78125 150.730469 311.363281 150.464844 C 303.152344 145.289062 294.9375 140.113281 286.726562 134.941406 C 276.605469 128.5625 266.484375 122.183594 256.363281 115.804688 C 255.9375 115.539062 255.378906 115.886719 255.378906 116.367188 " fill-opacity="1" fill-rule="nonzero"/></g><g clip-path="url(#fd116cd71c)"><path fill="#cf2224" d="M 248.320312 116.347656 C 248.320312 115.59375 247.707031 114.980469 246.953125 114.980469 L 238.042969 114.980469 C 237.285156 114.980469 236.671875 115.59375 236.671875 116.347656 L 236.671875 186.289062 C 236.671875 187.046875 237.285156 187.660156 238.042969 187.660156 L 246.953125 187.660156 C 247.707031 187.660156 248.320312 187.046875 248.320312 186.289062 L 248.320312 116.347656 " fill-opacity="1" fill-rule="nonzero"/></g><path fill="#373637" d="M 249.667969 113.558594 C 258.824219 119.328125 267.980469 125.101562 277.136719 130.871094 C 281.726562 133.761719 286.3125 136.652344 290.898438 139.542969 C 293.195312 140.988281 295.488281 142.4375 297.785156 143.882812 C 298.992188 144.644531 300.199219 145.40625 301.40625 146.164062 C 302.011719 146.546875 302.617188 146.929688 303.21875 147.308594 C 303.460938 147.460938 303.703125 147.613281 303.945312 147.765625 C 304.285156 148.082031 304.386719 148.101562 304.246094 147.824219 L 304.246094 146.964844 C 304.316406 146.535156 303.765625 147.136719 303.582031 147.25 C 303.34375 147.402344 303.101562 147.554688 302.859375 147.707031 C 302.257812 148.085938 301.65625 148.464844 301.054688 148.84375 C 299.96875 149.527344 298.886719 150.210938 297.800781 150.894531 C 295.511719 152.339844 293.222656 153.78125 290.933594 155.222656 C 286.351562 158.109375 281.773438 160.992188 277.195312 163.878906 C 272.609375 166.769531 268.023438 169.664062 263.433594 172.554688 C 261.140625 174 258.84375 175.445312 256.550781 176.890625 C 255.34375 177.652344 254.136719 178.414062 252.925781 179.175781 C 252.324219 179.554688 251.71875 179.9375 251.117188 180.316406 C 250.949219 180.421875 250.109375 181.097656 249.972656 181.085938 C 250.242188 181.15625 250.515625 181.230469 250.785156 181.304688 C 251.097656 181.777344 251.207031 181.746094 251.105469 181.207031 L 251.105469 113.585938 C 251.230469 112.835938 250.878906 112.878906 250.050781 113.71875 C 251.992188 114.464844 252.824219 111.351562 250.90625 110.613281 C 249.128906 109.933594 247.886719 111.550781 247.886719 113.15625 L 247.886719 179.933594 C 247.886719 181.289062 247.554688 183.152344 248.953125 183.964844 C 250.601562 184.925781 252.105469 183.496094 253.464844 182.640625 C 254.914062 181.726562 256.363281 180.8125 257.8125 179.898438 L 294.003906 157.09375 C 297.015625 155.195312 300.027344 153.296875 303.039062 151.398438 C 303.882812 150.867188 304.726562 150.335938 305.570312 149.804688 C 306.191406 149.414062 306.792969 149.082031 307.152344 148.417969 C 307.992188 146.867188 306.761719 145.738281 305.570312 144.984375 C 299.527344 141.175781 293.492188 137.371094 287.453125 133.566406 C 275.398438 125.96875 263.34375 118.375 251.292969 110.777344 C 249.53125 109.667969 247.914062 112.457031 249.667969 113.558594 " fill-opacity="1" fill-rule="nonzero"/><g clip-path="url(#422457ac7e)"><path fill="#373637" d="M 242.4375 181.042969 C 241.492188 181.042969 240.917969 181.777344 240.828125 182.652344 C 240.851562 182.410156 241.238281 182.410156 240.910156 182.410156 L 232.183594 182.410156 C 232.199219 182.410156 232.398438 182.515625 232.398438 182.644531 L 232.398438 112.742188 C 232.398438 112.769531 232.023438 112.953125 232.261719 112.953125 L 241.042969 112.953125 C 241.03125 112.953125 240.828125 112.863281 240.828125 112.714844 L 240.828125 182.652344 C 240.828125 184.726562 244.046875 184.726562 244.046875 182.652344 L 244.046875 112.726562 C 244.046875 110.867188 242.492188 109.730469 240.765625 109.730469 L 232.386719 109.730469 C 230.675781 109.730469 229.179688 110.933594 229.179688 112.734375 L 229.179688 182.582031 C 229.179688 186.191406 233.246094 185.632812 235.664062 185.632812 L 240.347656 185.632812 C 242.308594 185.632812 243.832031 184.789062 244.046875 182.652344 C 244.136719 181.777344 243.25 181.042969 242.4375 181.042969 " fill-opacity="1" fill-rule="nonzero"/></g></svg>